<svg width="169" height="72" viewBox="0 0 169 72" fill="none" xmlns="http://www.w3.org/2000/svg">
<g clip-path="url(#clip0_1784_863)">
<path d="M5.31141 12.6426C6.46826 12.6426 7.04823 12.0398 7.04823 10.8356C7.04823 9.65426 6.46826 9.06519 5.31141 9.06519C4.13318 9.06519 3.54102 9.65434 3.54102 10.8356C3.54102 12.0398 4.13318 12.6426 5.31141 12.6426Z" fill="#58595B"/>
<path d="M9.90223 12.6426C11.0591 12.6426 11.636 12.0398 11.636 10.8356C11.636 9.65426 11.0591 9.06519 9.90223 9.06519C8.72091 9.06519 8.13184 9.65434 8.13184 10.8356C8.13184 12.0398 8.72099 12.6426 9.90223 12.6426Z" fill="#58595B"/>
<path d="M28.0765 36.6729C26.8983 36.6729 26.3062 37.262 26.3062 38.4432C26.3062 39.6474 26.8983 40.2503 28.0765 40.2503C29.2334 40.2503 29.8134 39.6474 29.8134 38.4432C29.8134 37.2619 29.2334 36.6729 28.0765 36.6729Z" fill="#58595B"/>
<path d="M48.8877 15.8217C47.1539 15.8217 45.6002 16.2918 44.2266 17.2304C42.5417 18.4117 41.3971 20.1104 40.7926 22.3264C40.0936 23.3138 39.7457 24.518 39.7457 25.9405C39.7457 27.5064 40.2036 28.9029 41.1193 30.1314H33.3909C31.0284 30.1314 29.8471 28.9272 29.8471 26.5173V17.3754L26.7397 19.0374V26.5173C26.7397 28.9272 25.5615 30.1314 23.1989 30.1314H16.6234C14.2852 30.1314 13.1192 28.9272 13.1192 26.5173V14.9548L9.97524 16.6168V18.1706C9.01068 17.496 7.86602 17.1587 6.54125 17.1587C4.80752 17.1587 3.33622 17.7737 2.1336 19.0023C0.711151 20.4232 0 22.3019 0 24.6386C0 26.5906 0.518932 28.2404 1.55371 29.5896C2.80517 31.1799 4.49315 31.9751 6.61463 31.9751C8.32399 31.9751 9.75863 31.421 10.9124 30.313C11.999 32.143 13.7786 33.0587 16.2602 33.0587H23.5622C25.5616 33.0587 27.1397 32.4208 28.2934 31.1433C29.4503 32.4207 31.0284 33.0587 33.0277 33.0587H42.673C43.4696 33.0587 44.2389 32.9381 44.9867 32.697C45.707 32.9381 46.4793 33.0587 47.2974 33.0587H51.2014C53.0084 33.0587 54.4766 32.5535 55.609 31.5416C56.9093 30.3848 57.5626 28.7578 57.5626 26.6624V24.747C57.5626 22.1692 56.7782 20.0615 55.2123 18.4239C53.5487 16.6886 51.4425 15.8217 48.8877 15.8217ZM6.72143 29.3011C5.63781 29.3011 4.75875 28.8799 4.08417 28.0359C3.4096 27.1934 3.07077 26.0732 3.07077 24.6752C3.07077 23.3016 3.4096 22.1875 4.08417 21.3328C4.75875 20.4782 5.62561 20.0493 6.68485 20.0493C7.98516 20.0493 9.08097 20.5438 9.97531 21.5312V26.6272C9.97531 26.8669 9.99668 27.2041 10.0455 27.6376C9.17866 28.7471 8.07065 29.3011 6.72143 29.3011ZM44.9867 29.8063C43.0087 29.1317 42.0228 27.7826 42.0228 25.7588C42.0228 24.7469 42.2945 23.935 42.8347 23.3199C43.3781 22.7064 44.0954 22.3981 44.9867 22.3981C45.878 22.3981 46.5954 22.7064 47.1356 23.3199C47.6789 23.935 47.9475 24.7469 47.9475 25.7588C47.9475 27.7825 46.9616 29.1317 44.9867 29.8063ZM54.4186 26.3739C54.4186 27.6987 54.1592 28.6555 53.6403 29.2462C53.1213 29.8369 52.2728 30.1314 51.0915 30.1314H48.8175C49.7546 28.9517 50.2246 27.5537 50.2246 25.9405C50.2246 24.254 49.7485 22.8987 48.7992 21.8747C47.8468 20.8506 46.577 20.3393 44.9867 20.3393H44.8768C45.817 19.2542 47.1173 18.7124 48.7808 18.7124C50.2246 18.7124 51.4669 19.1703 52.5017 20.086C53.7776 21.194 54.4186 22.7477 54.4186 24.747V26.3739Z" fill="#58595B"/>
<path d="M97.2138 19.4358C95.9838 17.7493 94.2256 16.9053 91.9393 16.9053C90.1536 16.9053 88.7098 17.3998 87.6018 18.3873C86.3472 19.5441 85.7215 21.1695 85.7215 23.2665V26.5173C85.7215 28.9272 84.5433 30.1314 82.1807 30.1314H75.7368V23.2665C75.7368 21.4351 75.2424 19.9531 74.2564 18.8207C73.0996 17.5448 71.4483 16.9053 69.3054 16.9053C67.2572 16.9053 65.6059 17.557 64.3544 18.8573C62.9564 20.327 62.2573 22.3752 62.2573 25.0002C62.2573 27.1445 62.8128 28.8905 63.9209 30.2397C65.2457 31.8544 67.2084 32.7335 69.8121 32.8785C70.4134 32.9259 71.3413 32.9747 72.5928 33.022C72.5684 34.13 72.0799 35.0823 71.1306 35.8775C70.1783 36.6726 69.0642 37.0695 67.7883 37.0695C66.5337 37.0695 65.27 36.7322 63.9941 36.0576V38.8047C65.3189 39.5022 66.7261 39.8517 68.2217 39.8517C70.0287 39.8517 71.6404 39.2977 73.0628 38.1897C74.7477 36.8405 75.639 35.1297 75.7367 33.0586H82.5438C84.4943 33.0586 86.0479 32.4573 87.2048 31.2516C88.3373 32.4573 89.9855 33.0586 92.1559 33.0586C94.0575 33.0586 95.599 32.4084 96.7803 31.1066C98.1294 29.6384 98.804 27.6025 98.804 25.0003C98.804 22.7126 98.273 20.8567 97.2138 19.4358ZM72.5929 30.1315C71.4116 30.0841 70.5325 30.0231 69.9557 29.9514C66.8727 29.7591 65.3313 28.0848 65.3313 24.9286C65.3313 23.3138 65.6793 22.0548 66.3782 21.1513C67.0773 20.2492 68.0509 19.7975 69.3055 19.7975C71.4971 19.7975 72.5929 21.0261 72.5929 23.4833V30.1315ZM94.775 28.7579C94.1371 29.6751 93.2518 30.1315 92.1194 30.1315C89.9277 30.1315 88.8289 29.0113 88.8289 26.7709V23.4102C88.8289 21.0018 89.8667 19.7977 91.9393 19.7977C93.1176 19.7977 94.0455 20.2494 94.72 21.1514C95.3946 22.0549 95.7334 23.3141 95.7334 24.9287C95.7334 26.5664 95.413 27.8437 94.775 28.7579Z" fill="#58595B"/>
<path d="M0 45.9666H4.60837L9.14367 57.8702L13.7274 45.9666H18.2873V62.9579H15.4074V48.8465H15.3596L10.1997 62.9579H8.08744L2.9283 48.8465H2.87983V62.9579H0V45.9666Z" fill="#58595B"/>
<path d="M29.0863 61.374H29.0147C28.5986 62.0459 28.0701 62.5259 27.4309 62.814C26.7901 63.1016 26.0863 63.2459 25.3186 63.2459C24.7909 63.2459 24.2748 63.174 23.7709 63.0298C23.2663 62.8859 22.8186 62.6698 22.4271 62.3817C22.0348 62.094 21.7186 61.734 21.4786 61.302C21.2386 60.8697 21.1187 60.3659 21.1187 59.7897C21.1187 59.1659 21.2302 58.6344 21.4548 58.1939C21.6786 57.754 21.9786 57.3862 22.3548 57.0902C22.7302 56.794 23.1663 56.5582 23.6624 56.3821C24.1586 56.2063 24.674 56.074 25.2109 55.9859C25.7462 55.8982 26.2862 55.8421 26.8308 55.8182C27.3739 55.794 27.8862 55.7821 28.3662 55.7821H29.0861V55.4702C29.0861 54.7503 28.8384 54.2102 28.3423 53.8503C27.8462 53.4903 27.2147 53.3103 26.4462 53.3103C25.8385 53.3103 25.2708 53.4183 24.7423 53.6341C24.2146 53.8503 23.7585 54.1422 23.3746 54.5102L21.8623 52.9984C22.5023 52.3264 23.2508 51.8503 24.1061 51.5704C24.9622 51.2908 25.8461 51.1504 26.7583 51.1504C27.5745 51.1504 28.2622 51.2427 28.8222 51.4265C29.3822 51.6104 29.846 51.8465 30.2145 52.1342C30.5821 52.4223 30.866 52.7546 31.066 53.1304C31.2659 53.5065 31.4098 53.8865 31.4983 54.2704C31.586 54.6542 31.6383 55.0262 31.6544 55.3861C31.6698 55.7461 31.6783 56.0623 31.6783 56.3342V62.958H29.086L29.0863 61.374ZM28.9186 57.7979H28.3186C27.9186 57.7979 27.4702 57.8141 26.9748 57.846C26.4787 57.8783 26.0102 57.9541 25.571 58.0741C25.1303 58.194 24.7587 58.374 24.4549 58.6141C24.1503 58.8541 23.9987 59.1745 23.9987 59.574C23.9987 59.8463 24.0587 60.074 24.1787 60.2579C24.2987 60.4421 24.4549 60.5983 24.6464 60.7259C24.8387 60.854 25.0549 60.9459 25.2949 61.0021C25.5349 61.0582 25.7749 61.0859 26.0148 61.0859C27.0225 61.0859 27.7586 60.8501 28.2225 60.3778C28.6863 59.9063 28.9187 59.2621 28.9187 58.4459L28.9186 57.7979Z" fill="#58595B"/>
<path d="M33.2148 51.4382H36.334L38.8301 59.502H38.8786L41.2062 51.4382H44.3262L46.8215 59.502H46.87L49.27 51.4382H52.1738L48.2615 62.9577H45.4062L42.6701 55.0859H42.6224L40.1986 62.9577H37.2225L33.2148 51.4382Z" fill="#58595B"/>
<path d="M56.757 53.0465H56.8055C57.0293 52.5665 57.4208 52.1307 57.9816 51.7384C58.5408 51.3465 59.2769 51.1503 60.1893 51.1503C60.9569 51.1503 61.6092 51.2788 62.1454 51.5345C62.6807 51.7903 63.117 52.1265 63.4531 52.5422C63.7892 52.9584 64.0292 53.4384 64.173 53.9822C64.3169 54.5264 64.3892 55.0945 64.3892 55.6861V62.9579H61.5092V57.1261C61.5092 56.8064 61.493 56.4503 61.4607 56.0584C61.4292 55.6665 61.3446 55.2984 61.2092 54.9542C61.0731 54.6103 60.8607 54.3223 60.5731 54.0903C60.2854 53.8583 59.8931 53.7422 59.397 53.7422C58.917 53.7422 58.5132 53.8226 58.1855 53.9822C57.857 54.1422 57.5855 54.3584 57.3693 54.6303C57.1532 54.9026 56.997 55.2146 56.9017 55.566C56.8055 55.9183 56.7571 56.286 56.7571 56.6703V62.9579H53.8779V44.8147H56.7571L56.757 53.0465Z" fill="#58595B"/>
<path d="M67.2935 47.5266C67.2935 47.0628 67.465 46.6589 67.8089 46.3147C68.1527 45.9709 68.5889 45.7986 69.1173 45.7986C69.6449 45.7986 70.0888 45.9628 70.4488 46.2909C70.8088 46.6189 70.9888 47.0308 70.9888 47.5266C70.9888 48.0227 70.8088 48.4346 70.4488 48.7627C70.0888 49.0908 69.645 49.2546 69.1173 49.2546C68.5888 49.2546 68.1526 49.0827 67.8089 48.7385C67.465 48.3946 67.2935 47.9908 67.2935 47.5266ZM67.7012 51.4384H70.5811V62.9579H67.7012V51.4384Z" fill="#58595B"/>
<path d="M73.8926 44.8147H76.7717V52.9023H76.8441C76.9879 52.7104 77.1717 52.5146 77.3963 52.3142C77.6202 52.1146 77.8917 51.9265 78.2117 51.7503C78.5317 51.5746 78.904 51.4303 79.3279 51.3184C79.7517 51.2065 80.2278 51.1503 80.7555 51.1503C81.5716 51.1503 82.324 51.3065 83.0116 51.6184C83.6993 51.9303 84.2878 52.3583 84.7755 52.9022C85.2639 53.4464 85.6432 54.0864 85.9155 54.8221C86.1878 55.5583 86.3239 56.3502 86.3239 57.1979C86.3239 58.0463 86.1954 58.8382 85.9393 59.5739C85.684 60.3101 85.3078 60.9501 84.8117 61.4939C84.3155 62.0377 83.7156 62.4658 83.0117 62.7777C82.3079 63.0896 81.5156 63.2458 80.6356 63.2458C79.8202 63.2458 79.0602 63.0896 78.3564 62.7777C77.6518 62.4658 77.0918 61.9497 76.6764 61.2296H76.628V62.9577H73.8927L73.8926 44.8147ZM83.4439 57.198C83.4439 56.7503 83.3678 56.3184 83.2154 55.9022C83.0631 55.4865 82.8393 55.1184 82.5439 54.7984C82.2477 54.4784 81.8916 54.2223 81.4755 54.0304C81.0593 53.8385 80.5877 53.7423 80.0601 53.7423C79.5316 53.7423 79.0601 53.8385 78.6439 54.0304C78.2278 54.2223 77.8717 54.4784 77.5763 54.7984C77.2794 55.1184 77.0555 55.4865 76.904 55.9022C76.7516 56.3183 76.6763 56.7503 76.6763 57.198C76.6763 57.6465 76.7517 58.0783 76.904 58.4942C77.0555 58.9103 77.2794 59.2784 77.5763 59.598C77.8717 59.9184 78.2278 60.1741 78.6439 60.366C79.0601 60.5579 79.5317 60.6541 80.0601 60.6541C80.5877 60.6541 81.0593 60.5579 81.4755 60.366C81.8917 60.1741 82.2477 59.9184 82.5439 59.598C82.8393 59.2783 83.0631 58.9103 83.2154 58.4942C83.3678 58.0784 83.4439 57.6465 83.4439 57.198Z" fill="#58595B"/>
<path d="M96.2118 61.374H96.1402C95.7241 62.0459 95.1956 62.5259 94.5564 62.814C93.9156 63.1016 93.2117 63.2459 92.4441 63.2459C91.9164 63.2459 91.4003 63.174 90.8964 63.0298C90.3917 62.8859 89.9441 62.6698 89.5526 62.3817C89.1603 62.094 88.8441 61.734 88.6041 61.302C88.3641 60.8697 88.2441 60.3659 88.2441 59.7897C88.2441 59.1659 88.3557 58.6344 88.5803 58.1939C88.8041 57.754 89.1041 57.3862 89.4802 57.0902C89.8557 56.794 90.2918 56.5582 90.7879 56.3821C91.284 56.2063 91.7994 56.074 92.3364 55.9859C92.8717 55.8982 93.4117 55.8421 93.9563 55.8182C94.4994 55.794 95.0117 55.7821 95.4917 55.7821H96.2116V55.4702C96.2116 54.7503 95.9639 54.2102 95.4678 53.8503C94.9717 53.4903 94.3401 53.3103 93.5716 53.3103C92.964 53.3103 92.3963 53.4183 91.8678 53.6341C91.3401 53.8503 90.884 54.1422 90.5001 54.5102L88.9878 52.9984C89.6278 52.3264 90.3762 51.8503 91.2316 51.5704C92.0877 51.2908 92.9716 51.1504 93.8838 51.1504C94.7 51.1504 95.3876 51.2427 95.9477 51.4265C96.5077 51.6104 96.9715 51.8465 97.3399 52.1342C97.7076 52.4223 97.9915 52.7546 98.1915 53.1304C98.3914 53.5065 98.5353 53.8865 98.6238 54.2704C98.7114 54.6542 98.7637 55.0262 98.7799 55.3861C98.7953 55.7461 98.8038 56.0623 98.8038 56.3342V62.958H96.2115L96.2118 61.374ZM96.0441 57.7979H95.4441C95.0441 57.7979 94.5957 57.8141 94.1003 57.846C93.6042 57.8783 93.1357 57.9541 92.6965 58.0741C92.2558 58.194 91.8842 58.374 91.5804 58.6141C91.2758 58.8541 91.1242 59.1745 91.1242 59.574C91.1242 59.8463 91.1842 60.074 91.3042 60.2579C91.4242 60.4421 91.5804 60.5983 91.7719 60.7259C91.9642 60.854 92.1803 60.9459 92.4204 61.0021C92.6604 61.0582 92.9004 61.0859 93.1403 61.0859C94.148 61.0859 94.8841 60.8501 95.348 60.3778C95.8118 59.9063 96.0442 59.2621 96.0442 58.4459L96.0441 57.7979Z" fill="#58595B"/>
<path d="M128.883 28.3331C128.188 26.3331 129.498 24.4776 131.675 24.571C134.579 24.6134 137.206 26.3229 139.354 27.9347C144.28 31.8306 150.842 40.1734 149.271 46.9734C147.665 51.7173 142.421 50.0944 139.7 47.4623C137.276 45.3295 135.397 42.6297 134.141 39.7055C136.595 41.5825 138.901 43.3873 141.559 44.772C142.675 45.3328 143.801 45.8601 144.913 45.8371C145.095 45.7804 145.177 45.7445 145.021 45.7554C144.894 45.7537 144.863 45.9115 144.875 45.7172C144.923 43.9034 143.963 41.881 143.137 40.1761C142.222 37.6187 130.612 20.5762 128.883 28.3331Z" fill="#E2A947"/>
<path d="M168.042 37.4241C170.347 54.6933 155.241 70.1096 138.087 69.8649C125.401 70.0247 113.12 61.4625 109.287 49.3541C108.038 45.4588 107.586 41.3512 108.134 37.4241C109.171 45.2643 112.81 52.3044 118.29 57.2213C136.824 73.7922 165.132 61.8655 168.042 37.4241Z" fill="#8079A8"/>
<path d="M129.833 29.5156C126.822 33.6976 124.103 37.9522 122.451 42.7536C120.419 48.5864 120.714 54.6628 128.577 52.3361C133.138 51.0445 137.298 48.2857 140.961 45.2804C145.955 41.0794 150.579 36.0683 153.381 30.1116C154.707 27.1854 155.779 23.6501 153.842 20.7102C154.894 21.5505 155.666 22.7688 155.949 24.0997C158.307 37.2117 141.967 54.2059 129.784 57.092C125.757 58.26 119.978 57.5598 118.098 53.0818C114.742 44.4876 123.506 34.2132 129.833 29.5156Z" fill="#64A86C"/>
<path d="M161.31 59.1655C161.266 65.9804 157.293 72.5475 149.628 71.9637C142.971 71.3362 137.462 67.2515 132.791 62.8647C120.294 50.7772 109.339 28.5002 112.898 10.8533C116.177 -2.81392 128.52 -2.33751 137.741 5.45731C145.031 11.4619 150.347 19.6285 153.931 28.2026C148.983 20.5144 143.271 13.263 135.794 8.07289C128.783 3.07173 119.535 1.25716 117.503 11.8875C115.617 23.4623 120.092 35.3005 125.342 45.5314C129.587 53.3189 134.918 60.7945 142.132 66.0285C150.978 72.4661 159.077 70.4634 161.31 59.1655Z" fill="#4A7FB9"/>
<path d="M134.604 42.8658C130.682 42.0215 128.324 37.3681 129.367 33.4347C130.328 29.0212 134.979 25.8824 139.483 26.4987C146.553 27.1923 150.42 36.0546 145.465 41.3067C144.083 42.766 142.186 43.5945 140.393 43.5518C144.541 40.7377 145.111 35.8123 141.982 32.8319C135.519 27.8419 128.809 36.7977 134.604 42.8658Z" fill="#D14E48"/>
</g>
<defs>
<clipPath id="clip0_1784_863">
<rect width="168.275" height="72" fill="white"/>
</clipPath>
</defs>
</svg>
